<svg xmlns="http://www.w3.org/2000/svg" viewBox="0 0 99.18 97.49"><defs><style>.cls-1{fill:#484849;}</style></defs><g id="Layer_2" data-name="Layer 2"><g id="Layer_1-2" data-name="Layer 1"><g id="Layer_2-2" data-name="Layer 2"><g id="Layer_1-2-2" data-name="Layer 1-2"><path class="cls-1" d="M3.65,56.75,31.5,28.85h0a28.35,28.35,0,0,1,40.09-.33,29.16,29.16,0,0,1,3.37,4c.08.08.17.15.25.24a10.18,10.18,0,0,0,18-6.53A12.67,12.67,0,0,0,91.06,20,48.74,48.74,0,0,0,22.94,9.41,48.86,48.86,0,0,0,3.06,52.23C3.23,53.75,3.4,55.24,3.65,56.75Z"/><path class="cls-1" d="M97.56,54.36a7.52,7.52,0,0,0-6-2.93H61.92A7.61,7.61,0,0,0,54.31,59a1.93,1.93,0,0,0,0,.24c.11,3.93,3.87,7.37,8,7.37h2a4,4,0,0,1,2.8,6.76L43.82,96.85c1.48.24,3,.42,4.47.52a48.85,48.85,0,0,0,50.63-36.3A7.73,7.73,0,0,0,97.56,54.36Z"/><path class="cls-1" d="M51.46,25.75A21.19,21.19,0,0,0,40,29.5l-.28.19a53.44,53.44,0,0,0-8.18,6.67L.61,67.23C-.78,68.61.1,72.35,4.45,70.56L8.56,69c4.34-1.17,7.53-.88,9.91,2.25,2,2.68.72,7.06.72,7.06-.94,3.09,1.43,5.21,4,4.17l1.66-.61a8.13,8.13,0,0,1,10,4.14,7.26,7.26,0,0,1,.5,5.18h0a2.45,2.45,0,0,0,4.21,2.36L61.11,72c-6.55-.62-12-6.09-12.14-12.5a12.9,12.9,0,0,1,12.5-13.32H74.61A23.07,23.07,0,0,0,51.46,25.75ZM39.08,44.85c-1.16,3.19-3.55,5.25-5.33,4.6s-2.29-3.77-1.13-7,3.55-5.25,5.33-4.6S40.24,41.66,39.08,44.85Zm12.09,0C50,48,47.62,50.1,45.84,49.45s-2.29-3.77-1.13-7,3.55-5.25,5.33-4.6S52.34,41.66,51.17,44.85Z"/></g></g></g></g></svg>