<svg xmlns="http://www.w3.org/2000/svg" viewBox="0 0 102.97 94.56"><defs><style>.cls-1{fill:#fff;}</style></defs><g id="Layer_2" data-name="Layer 2"><g id="Layer_1-2" data-name="Layer 1"><path class="cls-1" d="M93.39,53.57l-7.25,7.25c-2.68,2.83-5.32,5.4-7.57,7.57l-2.49,2.49c-.45.45-.93.84-1.39,1.26-6.86,7.23-20.53,22.44-23.92,22.42-1.86,0-2.68-2.54-2.07-4.3,1.52-5.51-1.64-10.25-6.15-12.34-.44-.17-.88-.33-1.31-.52a11.37,11.37,0,0,0-9.29.86C21.29,79.92,30.1,70,25.45,62.78c-3.28-4.31-7.68-4.71-13.66-3.1L6.13,61.81c-6,2.46-7.21-2.69-5.29-4.59C6.75,51.92,27.39,30,42,16.22l7-7A31.38,31.38,0,0,1,91.59,7.55a30.15,30.15,0,0,1,11.2,20.53h0a.43.43,0,0,0,0,.05h0a20.56,20.56,0,0,1-.66,8.32A31.19,31.19,0,0,1,93.39,53.57ZM52.29,16.74c-2.46-.9-5.75,1.88-7.35,6.33s-.89,8.75,1.56,9.65,5.75-1.94,7.34-6.34S54.74,17.63,52.29,16.74Zm10.87,16c2.45.89,5.74-1.94,7.34-6.34s.9-8.75-1.56-9.64-5.74,1.88-7.34,6.33S60.71,31.82,63.16,32.72Z"/></g></g></svg>