<svg xmlns="http://www.w3.org/2000/svg" xmlns:xlink="http://www.w3.org/1999/xlink" viewBox="0 0 128 128"><defs><style>.cls-1{fill:url(#linear-gradient);}.cls-2{fill:#a7ff58;}.cls-3{fill:#fff;}</style><linearGradient id="linear-gradient" y1="66" x2="128" y2="66" gradientTransform="matrix(1, 0, 0, -1, 0, 130)" gradientUnits="userSpaceOnUse"><stop offset="0" stop-color="#344652"/><stop offset="1" stop-color="#333336"/></linearGradient></defs><g id="Layer_2" data-name="Layer 2"><g id="Layer_1-2" data-name="Layer 1"><g id="Layer_2-2" data-name="Layer 2"><g id="Layer_1-2-2" data-name="Layer 1-2"><circle class="cls-1" cx="64" cy="64" r="64"/><path class="cls-2" d="M16.09,72,43.94,44.1h0A28.35,28.35,0,0,1,87.4,47.76c.08.08.17.15.25.24a10.18,10.18,0,0,0,18-6.53,12.57,12.57,0,0,0-2.15-6.26,48.78,48.78,0,0,0-88,32.27C15.67,69,15.84,70.49,16.09,72Z"/><path class="cls-2" d="M110,69.61a7.49,7.49,0,0,0-6-2.93H74.36a7.6,7.6,0,0,0-7.6,7.6v.24c.11,3.93,3.87,7.37,8,7.37h2a4,4,0,0,1,2.8,6.76L56.26,112.1c1.48.24,3,.42,4.47.52a48.85,48.85,0,0,0,50.63-36.3A7.69,7.69,0,0,0,110,69.61Z"/><path class="cls-3" d="M63.9,41a21.19,21.19,0,0,0-11.44,3.75l-.28.19A53.44,53.44,0,0,0,44,51.61L13.05,82.48c-1.39,1.38-.51,5.12,3.84,3.33L21,84.27c4.34-1.17,7.53-.88,9.91,2.25,2,2.68.72,7.06.72,7.06-.94,3.09,1.43,5.21,4,4.17l1.66-.61a8.12,8.12,0,0,1,10,4.14,7.21,7.21,0,0,1,.5,5.18h0A2.45,2.45,0,0,0,52,108.82L73.55,87.2C67,86.58,61.6,81.11,61.41,74.7a12.93,12.93,0,0,1,12.5-13.33H87.05A23.05,23.05,0,0,0,63.9,41ZM51.52,60.1c-1.16,3.19-3.55,5.25-5.33,4.6s-2.29-3.77-1.13-7,3.55-5.25,5.33-4.6S52.68,56.91,51.52,60.1Zm12.09,0c-1.16,3.19-3.55,5.25-5.33,4.6s-2.29-3.77-1.13-7,3.55-5.25,5.33-4.6S64.78,56.91,63.61,60.1Z"/></g></g></g></g></svg>